# xmcd
#
# Track frame offsets:
#	150
#	17861
#	35127
#	52080
#	66893
#	81939
#	103134
#	121089
#	137867
#	155300
#	167018
#	183866
#
# Disc length: 2676 seconds
#
# Revision: 0
# Processed by: cddbd v1.5.2PL0 Copyright (c) Steve Scherf et al.
# Submitted via: EZCDAudioConverter 2.3.0.1
#
DISCID=a30a720c
DTITLE=Rick Vito - Mojo On My Side
DYEAR=2014
DGENRE=Blues
TTITLE0=Rick Vito - Mojo On My Side
TTITLE1=Rick Vito - Easy Baby
TTITLE2=Rick Vito - Pretty Women
TTITLE3=Rick Vito - Femme Fatale
TTITLE4=Rick Vito - Life Was Just A Struggle
TTITLE5=Rick Vito - Who Were You Thinking Of ?
TTITLE6=Rick Vito - Missy Brown
TTITLE7=Rick Vito - She's Got It All !
TTITLE8=Rick Vito - Let A Woman Be A Woman
TTITLE9=Rick Vito - Help Me, Lord
TTITLE10=Rick Vito - Yon Can Run
TTITLE11=Rick Vito - River Of Blues
EXTD=
EXTT0=
EXTT1=
EXTT2=
EXTT3=
EXTT4=
EXTT5=
EXTT6=
EXTT7=
EXTT8=
EXTT9=
EXTT10=
EXTT11=
PLAYORDER=
